<svg id="svg" version="1.1" xmlns="http://www.w3.org/2000/svg" xmlns:xlink="http://www.w3.org/1999/xlink" width="400" height="400" viewBox="0, 0, 400,400"><g id="svgg"><path id="path0" d="M183.200 15.544 C 180.076 16.233,174.174 19.737,163.600 27.178 C 160.630 29.269,155.680 32.648,152.600 34.688 C 149.520 36.729,146.697 38.623,146.326 38.899 C 145.592 39.445,145.608 39.623,147.002 46.400 C 147.947 50.993,147.037 50.749,156.200 48.867 C 160.733 47.935,160.513 47.813,161.328 51.712 C 161.706 53.521,162.123 55.405,162.254 55.900 C 162.601 57.204,162.117 57.048,158.218 54.600 C 154.018 51.963,154.412 51.998,153.262 54.165 C 152.302 55.975,152.258 57.373,153.008 62.200 C 153.245 63.722,153.192 63.828,151.929 64.371 C 151.198 64.685,148.980 65.695,147.000 66.615 C 143.529 68.229,141.410 69.205,136.500 71.453 C 120.976 78.561,121.616 78.180,121.606 80.313 C 121.599 81.776,122.452 82.386,123.402 81.598 C 123.895 81.189,127.200 86.959,127.200 88.230 C 127.200 88.312,127.745 89.569,128.411 91.023 C 130.580 95.759,131.262 95.369,120.400 95.600 L 111.000 95.800 110.893 106.282 C 110.773 118.152,110.520 117.270,114.200 117.819 C 115.300 117.983,116.980 118.451,117.933 118.859 C 120.933 120.142,125.962 119.636,128.738 117.773 C 130.966 116.277,132.106 114.115,133.198 109.316 C 133.947 106.024,142.407 97.952,147.008 96.140 C 148.764 95.448,151.166 94.499,152.347 94.029 L 154.493 93.175 156.747 95.490 C 157.986 96.763,161.935 100.898,165.523 104.678 C 172.940 112.492,172.689 111.526,167.900 113.850 C 165.168 115.176,165.111 115.465,167.201 117.353 C 170.554 120.382,171.804 118.845,173.956 109.046 L 174.737 105.492 171.894 102.446 C 170.331 100.771,167.285 97.567,165.126 95.328 C 160.678 90.714,160.966 91.192,161.947 90.061 C 163.046 88.794,163.401 88.925,168.046 92.308 C 170.381 94.008,173.689 96.390,175.397 97.600 C 179.504 100.509,179.301 100.265,180.782 104.073 C 181.494 105.903,182.239 107.805,182.438 108.300 C 182.637 108.795,182.956 109.605,183.146 110.100 C 183.337 110.595,183.721 111.540,184.000 112.200 C 184.718 113.900,185.042 114.734,185.838 116.939 C 186.693 119.305,187.175 119.528,188.995 118.403 C 191.564 116.816,191.846 114.765,190.141 110.081 C 189.529 108.397,189.231 107.028,189.439 106.847 C 189.821 106.515,196.450 104.708,196.613 104.892 C 196.769 105.067,201.642 115.563,203.233 119.147 L 204.185 121.295 206.593 121.022 C 207.917 120.872,210.620 120.590,212.600 120.395 C 214.580 120.200,217.444 119.912,218.964 119.756 L 221.727 119.472 221.451 124.366 C 220.797 135.929,218.430 139.140,210.529 139.182 C 203.692 139.219,199.069 138.180,191.600 134.928 C 190.830 134.593,189.840 134.179,189.400 134.009 C 188.960 133.839,188.097 133.497,187.481 133.250 C 184.355 131.993,183.934 132.552,182.852 139.395 C 182.685 140.454,182.369 141.034,181.913 141.122 C 181.312 141.237,170.492 136.845,163.309 133.570 L 160.818 132.434 160.709 124.917 L 160.600 117.400 150.349 117.293 C 138.649 117.172,138.302 117.242,134.230 120.558 C 131.983 122.388,128.957 123.600,126.627 123.601 C 125.952 123.601,123.874 123.870,122.008 124.198 L 118.617 124.795 113.708 129.691 L 108.800 134.588 108.800 139.891 L 108.800 145.194 107.500 146.294 C 93.898 157.800,91.400 163.963,91.400 186.024 L 91.400 201.047 93.687 205.552 C 98.525 215.081,106.221 225.096,110.284 227.149 C 114.101 229.078,125.324 228.299,130.656 225.734 C 133.980 224.135,137.854 223.425,141.735 223.703 C 145.344 223.961,146.346 224.716,147.206 227.824 L 147.863 230.200 152.132 230.314 L 156.400 230.427 156.400 239.233 C 156.400 246.949,156.490 248.222,157.130 249.519 C 157.531 250.334,159.129 253.520,160.681 256.600 C 166.163 267.483,166.816 269.460,167.084 275.988 C 167.271 280.563,167.136 281.289,164.755 288.524 C 162.048 296.747,162.615 301.945,168.036 318.600 C 171.330 328.719,173.600 338.271,173.600 342.011 C 173.600 345.390,173.102 345.200,181.977 345.200 C 188.895 345.200,190.184 345.097,192.434 344.364 C 200.752 341.655,208.516 333.057,210.425 324.440 C 210.944 322.095,211.110 321.830,212.396 321.298 C 216.817 319.469,217.287 319.165,217.085 318.271 C 216.419 315.321,215.200 309.051,215.200 308.572 C 215.200 307.619,217.894 304.944,223.700 300.131 C 231.980 293.268,232.761 291.938,232.008 286.000 C 231.346 280.791,230.382 273.891,229.576 268.600 C 229.375 267.280,229.106 264.760,228.979 263.000 L 228.747 259.800 230.701 257.200 C 251.730 229.224,258.343 217.391,258.393 207.648 L 258.400 206.297 256.415 206.560 C 255.324 206.705,253.320 207.178,251.963 207.612 C 248.429 208.741,244.364 208.690,243.052 207.500 C 241.396 205.998,240.832 201.600,242.295 201.600 C 249.944 201.600,269.293 188.427,274.316 179.800 C 278.651 172.355,279.232 164.000,275.416 164.000 C 274.732 164.000,273.414 162.471,272.395 160.497 C 270.761 157.331,267.466 157.462,267.279 160.700 L 267.158 162.800 262.826 162.800 L 258.495 162.800 254.847 153.568 C 250.718 143.115,250.910 143.849,252.089 143.023 C 253.366 142.129,253.022 141.846,258.985 148.700 C 265.880 156.624,265.155 156.134,268.600 155.204 L 271.400 154.448 274.600 157.838 L 277.800 161.227 285.600 160.989 L 293.400 160.751 296.600 165.217 C 298.360 167.673,299.989 169.889,300.219 170.141 C 300.449 170.393,301.223 171.455,301.938 172.500 C 303.453 174.713,304.125 174.832,306.015 173.216 C 306.777 172.565,307.622 172.025,307.892 172.016 C 308.432 171.998,308.497 172.227,309.375 177.200 C 309.705 179.070,310.261 182.220,310.610 184.200 C 310.960 186.180,311.407 188.700,311.605 189.800 C 311.803 190.900,312.341 193.960,312.800 196.600 C 313.259 199.240,313.807 202.345,314.017 203.500 C 314.228 204.655,314.588 206.635,314.818 207.900 C 315.048 209.165,315.330 210.830,315.444 211.600 C 316.024 215.509,315.846 215.464,319.918 212.732 C 323.899 210.061,323.586 211.009,323.599 201.600 L 323.610 193.400 325.885 191.000 C 340.834 175.232,345.724 170.354,346.052 170.884 C 346.224 171.162,347.767 175.664,349.482 180.888 C 352.977 191.535,352.576 190.958,355.745 189.923 C 357.035 189.502,358.171 189.238,358.270 189.336 C 358.437 189.504,359.405 198.710,360.421 209.800 C 361.077 216.956,361.141 217.270,361.923 217.120 C 362.520 217.006,362.624 216.141,362.800 209.795 L 363.000 202.600 364.219 203.856 C 364.890 204.547,366.765 206.707,368.387 208.656 C 373.288 214.545,372.830 214.557,377.735 208.414 L 379.800 205.828 379.753 202.414 C 379.698 198.400,378.747 195.544,375.731 190.336 C 373.329 186.187,373.048 182.066,374.820 177.000 L 375.800 174.200 378.662 174.200 C 382.217 174.200,382.200 174.219,381.620 170.918 C 379.163 156.944,376.210 145.470,372.569 135.745 C 371.816 133.734,371.200 131.977,371.200 131.840 C 371.200 131.703,370.840 130.783,370.400 129.796 C 369.342 127.422,368.290 125.004,367.359 122.811 C 366.188 120.052,360.503 108.886,358.901 106.200 C 353.904 97.821,351.659 94.416,346.637 87.600 C 325.794 59.313,295.180 36.195,262.000 23.687 C 254.367 20.810,256.413 20.713,243.079 24.580 C 236.594 26.461,231.088 28.000,230.844 28.000 C 230.558 28.000,230.400 26.932,230.400 25.000 L 230.400 22.000 228.200 22.000 L 226.000 22.000 225.994 24.500 C 225.986 27.669,225.867 27.832,222.987 28.609 C 221.674 28.963,219.710 29.493,218.623 29.788 C 216.539 30.352,215.604 31.212,215.594 32.576 C 215.577 34.846,214.336 34.811,211.778 32.470 C 211.130 31.877,208.943 30.060,206.918 28.432 C 202.600 24.960,202.099 24.220,204.299 24.565 C 208.410 25.210,218.196 25.964,218.501 25.659 C 219.704 24.456,205.628 18.272,196.600 16.036 C 194.200 15.442,185.167 15.110,183.200 15.544 M12.805 244.700 C 12.809 244.971,13.955 249.552,14.780 252.600 C 15.250 254.334,18.134 262.861,19.515 266.600 C 23.297 276.839,28.787 287.895,36.036 299.870 C 38.278 303.574,38.192 303.741,38.782 294.560 L 39.289 286.691 42.242 282.390 C 47.826 274.260,47.893 274.048,47.694 265.168 L 47.600 260.936 41.100 257.800 C 34.028 254.388,19.635 247.426,15.806 245.564 C 13.304 244.348,12.797 244.202,12.805 244.700 " stroke="none" fill="#a3e364" fill-rule="evenodd"></path><path id="path1" d="M178.300 0.275 C 176.375 0.361,174.800 0.604,174.800 0.816 C 174.800 1.027,173.540 1.200,172.000 1.200 C 170.400 1.200,169.200 1.371,169.200 1.600 C 169.200 1.822,168.133 2.000,166.800 2.000 C 165.467 2.000,164.400 2.178,164.400 2.400 C 164.400 2.620,163.410 2.800,162.200 2.800 C 160.990 2.800,160.000 2.980,160.000 3.200 C 160.000 3.420,159.280 3.600,158.400 3.600 C 157.520 3.600,156.800 3.780,156.800 4.000 C 156.800 4.220,155.900 4.400,154.800 4.400 C 153.700 4.400,152.800 4.580,152.800 4.800 C 152.800 5.020,152.080 5.200,151.200 5.200 C 150.320 5.200,149.600 5.380,149.600 5.600 C 149.600 5.820,148.981 6.000,148.224 6.000 C 147.467 6.000,146.736 6.180,146.600 6.400 C 146.464 6.620,145.823 6.800,145.176 6.800 C 144.529 6.800,144.000 6.980,144.000 7.200 C 144.000 7.420,143.370 7.600,142.600 7.600 C 141.830 7.600,141.200 7.780,141.200 8.000 C 141.200 8.220,140.771 8.400,140.246 8.400 C 139.222 8.400,135.447 9.440,134.305 10.037 C 133.923 10.237,133.336 10.400,133.000 10.400 C 132.664 10.400,132.077 10.559,131.695 10.753 C 131.313 10.948,130.460 11.329,129.800 11.600 C 129.140 11.871,128.287 12.252,127.905 12.447 C 127.523 12.641,126.848 12.800,126.405 12.800 C 125.962 12.800,125.600 12.980,125.600 13.200 C 125.600 13.420,125.240 13.600,124.800 13.600 C 124.360 13.600,124.000 13.780,124.000 14.000 C 124.000 14.220,123.561 14.400,123.024 14.400 C 122.487 14.400,121.936 14.580,121.800 14.800 C 121.664 15.020,121.203 15.200,120.776 15.200 C 120.349 15.200,120.000 15.380,120.000 15.600 C 120.000 15.820,119.640 16.000,119.200 16.000 C 118.760 16.000,118.400 16.180,118.400 16.400 C 118.400 16.620,118.040 16.800,117.600 16.800 C 117.160 16.800,116.800 16.980,116.800 17.200 C 116.800 17.420,116.485 17.599,116.100 17.597 C 115.325 17.593,108.678 20.814,108.467 21.296 C 108.393 21.463,107.988 21.600,107.567 21.600 C 107.145 21.600,106.800 21.780,106.800 22.000 C 106.800 22.220,106.480 22.400,106.088 22.400 C 105.697 22.400,105.117 22.760,104.800 23.200 C 104.483 23.640,103.903 24.000,103.512 24.000 C 103.120 24.000,102.800 24.180,102.800 24.400 C 102.800 24.620,102.524 24.800,102.187 24.800 C 101.419 24.800,97.447 26.779,97.267 27.251 C 97.193 27.443,96.956 27.600,96.739 27.600 C 96.522 27.600,95.559 28.140,94.600 28.800 C 93.641 29.460,92.703 30.000,92.516 30.000 C 92.329 30.000,91.917 30.360,91.600 30.800 C 91.283 31.240,90.743 31.600,90.400 31.600 C 90.057 31.600,89.517 31.960,89.200 32.400 C 88.883 32.840,88.343 33.200,88.000 33.200 C 87.657 33.200,87.117 33.560,86.800 34.000 C 86.483 34.440,85.943 34.800,85.600 34.800 C 85.257 34.800,84.717 35.160,84.400 35.600 C 84.083 36.040,83.620 36.400,83.371 36.400 C 83.122 36.400,82.354 36.940,81.663 37.600 C 80.972 38.260,80.208 38.800,79.964 38.800 C 79.720 38.800,79.017 39.340,78.400 40.000 C 77.783 40.660,77.164 41.200,77.023 41.200 C 76.752 41.200,76.352 41.514,74.349 43.300 C 73.671 43.905,72.959 44.400,72.768 44.400 C 72.577 44.400,71.611 45.210,70.621 46.200 C 69.631 47.190,68.645 48.000,68.430 48.000 C 68.214 48.000,65.914 50.150,63.319 52.779 C 57.608 58.562,58.562 57.608,52.779 63.319 C 50.150 65.914,48.000 68.214,48.000 68.430 C 48.000 68.645,47.190 69.631,46.200 70.621 C 45.210 71.611,44.400 72.577,44.400 72.768 C 44.400 72.959,43.905 73.671,43.300 74.349 C 41.514 76.352,41.200 76.752,41.200 77.023 C 41.200 77.164,40.660 77.783,40.000 78.400 C 39.340 79.017,38.800 79.720,38.800 79.964 C 38.800 80.208,38.260 80.972,37.600 81.663 C 36.940 82.354,36.400 83.122,36.400 83.371 C 36.400 83.620,36.040 84.083,35.600 84.400 C 35.160 84.717,34.800 85.257,34.800 85.600 C 34.800 85.943,34.440 86.483,34.000 86.800 C 33.560 87.117,33.200 87.657,33.200 88.000 C 33.200 88.343,32.840 88.883,32.400 89.200 C 31.960 89.517,31.600 90.057,31.600 90.400 C 31.600 90.743,31.240 91.283,30.800 91.600 C 30.360 91.917,30.000 92.329,30.000 92.516 C 30.000 92.703,29.460 93.641,28.800 94.600 C 28.140 95.559,27.600 96.522,27.600 96.739 C 27.600 96.956,27.443 97.193,27.251 97.267 C 26.809 97.435,24.800 101.396,24.800 102.098 C 24.800 102.387,24.440 102.883,24.000 103.200 C 23.560 103.517,23.200 104.097,23.200 104.488 C 23.200 104.880,23.020 105.200,22.800 105.200 C 22.580 105.200,22.400 105.560,22.400 106.000 C 22.400 106.440,22.220 106.800,22.000 106.800 C 21.780 106.800,21.600 107.145,21.600 107.567 C 21.600 107.988,21.463 108.393,21.296 108.467 C 20.814 108.678,17.593 115.325,17.597 116.100 C 17.599 116.485,17.420 116.800,17.200 116.800 C 16.980 116.800,16.800 117.160,16.800 117.600 C 16.800 118.040,16.620 118.400,16.400 118.400 C 16.180 118.400,16.000 118.760,16.000 119.200 C 16.000 119.640,15.820 120.000,15.600 120.000 C 15.380 120.000,15.200 120.349,15.200 120.776 C 15.200 121.203,15.020 121.664,14.800 121.800 C 14.580 121.936,14.400 122.487,14.400 123.024 C 14.400 123.561,14.220 124.000,14.000 124.000 C 13.780 124.000,13.600 124.360,13.600 124.800 C 13.600 125.240,13.420 125.600,13.200 125.600 C 12.980 125.600,12.800 125.962,12.800 126.405 C 12.800 126.848,12.641 127.523,12.447 127.905 C 12.252 128.287,11.871 129.140,11.600 129.800 C 11.329 130.460,10.948 131.313,10.753 131.695 C 10.559 132.077,10.400 132.664,10.400 133.000 C 10.400 133.336,10.237 133.923,10.037 134.305 C 9.440 135.447,8.400 139.222,8.400 140.246 C 8.400 140.771,8.220 141.200,8.000 141.200 C 7.780 141.200,7.600 141.830,7.600 142.600 C 7.600 143.370,7.420 144.000,7.200 144.000 C 6.980 144.000,6.800 144.529,6.800 145.176 C 6.800 145.823,6.620 146.464,6.400 146.600 C 6.180 146.736,6.000 147.467,6.000 148.224 C 6.000 148.981,5.820 149.600,5.600 149.600 C 5.380 149.600,5.200 150.320,5.200 151.200 C 5.200 152.080,5.020 152.800,4.800 152.800 C 4.580 152.800,4.400 153.700,4.400 154.800 C 4.400 155.900,4.220 156.800,4.000 156.800 C 3.780 156.800,3.600 157.520,3.600 158.400 C 3.600 159.280,3.420 160.000,3.200 160.000 C 2.980 160.000,2.800 160.990,2.800 162.200 C 2.800 163.410,2.620 164.400,2.400 164.400 C 2.178 164.400,2.000 165.467,2.000 166.800 C 2.000 168.133,1.822 169.200,1.600 169.200 C 1.372 169.200,1.200 170.389,1.200 171.967 C 1.200 173.824,1.036 174.788,0.700 174.900 C -0.032 175.144,-0.032 224.856,0.700 225.100 C 1.036 225.212,1.200 226.176,1.200 228.033 C 1.200 229.611,1.372 230.800,1.600 230.800 C 1.822 230.800,2.000 231.867,2.000 233.200 C 2.000 234.533,2.178 235.600,2.400 235.600 C 2.620 235.600,2.800 236.590,2.800 237.800 C 2.800 239.010,2.980 240.000,3.200 240.000 C 3.420 240.000,3.600 240.720,3.600 241.600 C 3.600 242.480,3.780 243.200,4.000 243.200 C 4.220 243.200,4.400 244.100,4.400 245.200 C 4.400 246.300,4.580 247.200,4.800 247.200 C 5.020 247.200,5.200 247.920,5.200 248.800 C 5.200 249.680,5.380 250.400,5.600 250.400 C 5.820 250.400,6.000 251.019,6.000 251.776 C 6.000 252.533,6.180 253.264,6.400 253.400 C 6.620 253.536,6.800 254.177,6.800 254.824 C 6.800 255.471,6.980 256.000,7.200 256.000 C 7.420 256.000,7.600 256.630,7.600 257.400 C 7.600 258.170,7.780 258.800,8.000 258.800 C 8.220 258.800,8.400 259.229,8.400 259.754 C 8.400 260.778,9.440 264.553,10.037 265.695 C 10.237 266.077,10.400 266.664,10.400 267.000 C 10.400 267.336,10.559 267.923,10.753 268.305 C 10.948 268.687,11.329 269.540,11.600 270.200 C 11.871 270.860,12.252 271.713,12.447 272.095 C 12.641 272.477,12.800 273.152,12.800 273.595 C 12.800 274.038,12.980 274.400,13.200 274.400 C 13.420 274.400,13.600 274.760,13.600 275.200 C 13.600 275.640,13.780 276.000,14.000 276.000 C 14.220 276.000,14.400 276.439,14.400 276.976 C 14.400 277.513,14.580 278.064,14.800 278.200 C 15.020 278.336,15.200 278.797,15.200 279.224 C 15.200 279.651,15.380 280.000,15.600 280.000 C 15.820 280.000,16.000 280.360,16.000 280.800 C 16.000 281.240,16.180 281.600,16.400 281.600 C 16.620 281.600,16.800 281.960,16.800 282.400 C 16.800 282.840,16.980 283.200,17.200 283.200 C 17.420 283.200,17.599 283.515,17.597 283.900 C 17.593 284.675,20.814 291.322,21.296 291.533 C 21.463 291.607,21.600 292.012,21.600 292.433 C 21.600 292.855,21.780 293.200,22.000 293.200 C 22.220 293.200,22.400 293.560,22.400 294.000 C 22.400 294.440,22.580 294.800,22.800 294.800 C 23.020 294.800,23.200 295.120,23.200 295.512 C 23.200 295.903,23.560 296.483,24.000 296.800 C 24.440 297.117,24.800 297.613,24.800 297.902 C 24.800 298.604,26.809 302.565,27.251 302.733 C 27.443 302.807,27.600 303.044,27.600 303.261 C 27.600 303.478,28.140 304.441,28.800 305.400 C 29.460 306.359,30.000 307.297,30.000 307.484 C 30.000 307.671,30.360 308.083,30.800 308.400 C 31.240 308.717,31.600 309.257,31.600 309.600 C 31.600 309.943,31.960 310.483,32.400 310.800 C 32.840 311.117,33.200 311.657,33.200 312.000 C 33.200 312.343,33.560 312.883,34.000 313.200 C 34.440 313.517,34.800 314.057,34.800 314.400 C 34.800 314.743,35.160 315.283,35.600 315.600 C 36.040 315.917,36.400 316.380,36.400 316.629 C 36.400 316.878,36.940 317.646,37.600 318.337 C 38.260 319.028,38.800 319.792,38.800 320.036 C 38.800 320.280,39.340 320.983,40.000 321.600 C 40.660 322.217,41.200 322.836,41.200 322.977 C 41.200 323.264,41.469 323.610,43.199 325.542 C 43.859 326.281,44.400 327.041,44.400 327.232 C 44.400 327.423,45.210 328.389,46.200 329.379 C 47.190 330.369,48.000 331.355,48.000 331.570 C 48.000 331.786,50.150 334.086,52.779 336.681 C 58.562 342.392,57.608 341.438,63.319 347.221 C 65.914 349.850,68.214 352.000,68.430 352.000 C 68.645 352.000,69.631 352.810,70.621 353.800 C 71.611 354.790,72.577 355.600,72.768 355.600 C 72.959 355.600,73.671 356.095,74.349 356.700 C 76.352 358.486,76.752 358.800,77.023 358.800 C 77.164 358.800,77.783 359.340,78.400 360.000 C 79.017 360.660,79.720 361.200,79.964 361.200 C 80.208 361.200,80.972 361.740,81.663 362.400 C 82.354 363.060,83.122 363.600,83.371 363.600 C 83.620 363.600,84.083 363.960,84.400 364.400 C 84.717 364.840,85.257 365.200,85.600 365.200 C 85.943 365.200,86.483 365.560,86.800 366.000 C 87.117 366.440,87.657 366.800,88.000 366.800 C 88.343 366.800,88.883 367.160,89.200 367.600 C 89.517 368.040,90.057 368.400,90.400 368.400 C 90.743 368.400,91.283 368.760,91.600 369.200 C 91.917 369.640,92.329 370.000,92.516 370.000 C 92.703 370.000,93.641 370.540,94.600 371.200 C 95.559 371.860,96.522 372.400,96.739 372.400 C 96.956 372.400,97.193 372.557,97.267 372.749 C 97.447 373.221,101.419 375.200,102.187 375.200 C 102.524 375.200,102.800 375.380,102.800 375.600 C 102.800 375.820,103.120 376.000,103.512 376.000 C 103.903 376.000,104.483 376.360,104.800 376.800 C 105.117 377.240,105.697 377.600,106.088 377.600 C 106.480 377.600,106.800 377.780,106.800 378.000 C 106.800 378.220,107.145 378.400,107.567 378.400 C 107.988 378.400,108.393 378.537,108.467 378.704 C 108.678 379.186,115.325 382.407,116.100 382.403 C 116.485 382.401,116.800 382.580,116.800 382.800 C 116.800 383.020,117.160 383.200,117.600 383.200 C 118.040 383.200,118.400 383.380,118.400 383.600 C 118.400 383.820,118.760 384.000,119.200 384.000 C 119.640 384.000,120.000 384.180,120.000 384.400 C 120.000 384.620,120.349 384.800,120.776 384.800 C 121.203 384.800,121.664 384.980,121.800 385.200 C 121.936 385.420,122.487 385.600,123.024 385.600 C 123.561 385.600,124.000 385.780,124.000 386.000 C 124.000 386.220,124.360 386.400,124.800 386.400 C 125.240 386.400,125.600 386.580,125.600 386.800 C 125.600 387.020,125.962 387.200,126.405 387.200 C 126.848 387.200,127.523 387.359,127.905 387.553 C 128.287 387.748,129.140 388.129,129.800 388.400 C 130.460 388.671,131.313 389.052,131.695 389.247 C 132.077 389.441,132.664 389.600,133.000 389.600 C 133.336 389.600,133.923 389.763,134.305 389.963 C 135.447 390.560,139.222 391.600,140.246 391.600 C 140.771 391.600,141.200 391.780,141.200 392.000 C 141.200 392.220,141.830 392.400,142.600 392.400 C 143.370 392.400,144.000 392.580,144.000 392.800 C 144.000 393.020,144.529 393.200,145.176 393.200 C 145.823 393.200,146.464 393.380,146.600 393.600 C 146.736 393.820,147.467 394.000,148.224 394.000 C 148.981 394.000,149.600 394.180,149.600 394.400 C 149.600 394.620,150.320 394.800,151.200 394.800 C 152.080 394.800,152.800 394.980,152.800 395.200 C 152.800 395.420,153.700 395.600,154.800 395.600 C 155.900 395.600,156.800 395.780,156.800 396.000 C 156.800 396.220,157.520 396.400,158.400 396.400 C 159.280 396.400,160.000 396.580,160.000 396.800 C 160.000 397.020,160.990 397.200,162.200 397.200 C 163.410 397.200,164.400 397.380,164.400 397.600 C 164.400 397.822,165.467 398.000,166.800 398.000 C 168.133 398.000,169.200 398.178,169.200 398.400 C 169.200 398.628,170.389 398.800,171.967 398.800 C 173.824 398.800,174.788 398.964,174.900 399.300 C 175.144 400.032,224.856 400.032,225.100 399.300 C 225.212 398.964,226.176 398.800,228.033 398.800 C 229.611 398.800,230.800 398.628,230.800 398.400 C 230.800 398.178,231.867 398.000,233.200 398.000 C 234.533 398.000,235.600 397.822,235.600 397.600 C 235.600 397.380,236.590 397.200,237.800 397.200 C 239.010 397.200,240.000 397.020,240.000 396.800 C 240.000 396.580,240.720 396.400,241.600 396.400 C 242.480 396.400,243.200 396.220,243.200 396.000 C 243.200 395.780,244.100 395.600,245.200 395.600 C 246.300 395.600,247.200 395.420,247.200 395.200 C 247.200 394.980,247.920 394.800,248.800 394.800 C 249.680 394.800,250.400 394.620,250.400 394.400 C 250.400 394.180,251.019 394.000,251.776 394.000 C 252.533 394.000,253.264 393.820,253.400 393.600 C 253.536 393.380,254.177 393.200,254.824 393.200 C 255.471 393.200,256.000 393.020,256.000 392.800 C 256.000 392.580,256.630 392.400,257.400 392.400 C 258.170 392.400,258.800 392.220,258.800 392.000 C 258.800 391.780,259.229 391.600,259.754 391.600 C 260.778 391.600,264.553 390.560,265.695 389.963 C 266.077 389.763,266.664 389.600,267.000 389.600 C 267.336 389.600,267.923 389.441,268.305 389.247 C 268.687 389.052,269.540 388.671,270.200 388.400 C 270.860 388.129,271.713 387.748,272.095 387.553 C 272.477 387.359,273.152 387.200,273.595 387.200 C 274.038 387.200,274.400 387.020,274.400 386.800 C 274.400 386.580,274.760 386.400,275.200 386.400 C 275.640 386.400,276.000 386.220,276.000 386.000 C 276.000 385.780,276.439 385.600,276.976 385.600 C 277.513 385.600,278.064 385.420,278.200 385.200 C 278.336 384.980,278.797 384.800,279.224 384.800 C 279.651 384.800,280.000 384.620,280.000 384.400 C 280.000 384.180,280.360 384.000,280.800 384.000 C 281.240 384.000,281.600 383.820,281.600 383.600 C 281.600 383.380,281.960 383.200,282.400 383.200 C 282.840 383.200,283.200 383.020,283.200 382.800 C 283.200 382.580,283.515 382.401,283.900 382.403 C 284.675 382.407,291.322 379.186,291.533 378.704 C 291.607 378.537,292.012 378.400,292.433 378.400 C 292.855 378.400,293.200 378.220,293.200 378.000 C 293.200 377.780,293.520 377.600,293.912 377.600 C 294.303 377.600,294.883 377.240,295.200 376.800 C 295.517 376.360,296.097 376.000,296.488 376.000 C 296.880 376.000,297.200 375.820,297.200 375.600 C 297.200 375.380,297.476 375.200,297.813 375.200 C 298.581 375.200,302.553 373.221,302.733 372.749 C 302.807 372.557,303.044 372.400,303.261 372.400 C 303.478 372.400,304.441 371.860,305.400 371.200 C 306.359 370.540,307.297 370.000,307.484 370.000 C 307.671 370.000,308.083 369.640,308.400 369.200 C 308.717 368.760,309.257 368.400,309.600 368.400 C 309.943 368.400,310.483 368.040,310.800 367.600 C 311.117 367.160,311.657 366.800,312.000 366.800 C 312.343 366.800,312.883 366.440,313.200 366.000 C 313.517 365.560,314.057 365.200,314.400 365.200 C 314.743 365.200,315.283 364.840,315.600 364.400 C 315.917 363.960,316.380 363.600,316.629 363.600 C 316.878 363.600,317.646 363.060,318.337 362.400 C 319.028 361.740,319.792 361.200,320.036 361.200 C 320.280 361.200,320.983 360.660,321.600 360.000 C 322.217 359.340,322.836 358.800,322.977 358.800 C 323.264 358.800,323.610 358.531,325.542 356.801 C 326.281 356.141,327.041 355.600,327.232 355.600 C 327.423 355.600,328.389 354.790,329.379 353.800 C 330.369 352.810,331.355 352.000,331.570 352.000 C 331.786 352.000,334.086 349.850,336.681 347.221 C 342.392 341.438,341.438 342.392,347.221 336.681 C 349.850 334.086,352.000 331.786,352.000 331.570 C 352.000 331.355,352.810 330.369,353.800 329.379 C 354.790 328.389,355.600 327.423,355.600 327.232 C 355.600 327.041,356.095 326.329,356.700 325.651 C 358.486 323.648,358.800 323.248,358.800 322.977 C 358.800 322.836,359.340 322.217,360.000 321.600 C 360.660 320.983,361.200 320.280,361.200 320.036 C 361.200 319.792,361.740 319.028,362.400 318.337 C 363.060 317.646,363.600 316.878,363.600 316.629 C 363.600 316.380,363.960 315.917,364.400 315.600 C 364.840 315.283,365.200 314.743,365.200 314.400 C 365.200 314.057,365.560 313.517,366.000 313.200 C 366.440 312.883,366.800 312.343,366.800 312.000 C 366.800 311.657,367.160 311.117,367.600 310.800 C 368.040 310.483,368.400 309.943,368.400 309.600 C 368.400 309.257,368.760 308.717,369.200 308.400 C 369.640 308.083,370.000 307.671,370.000 307.484 C 370.000 307.297,370.540 306.359,371.200 305.400 C 371.860 304.441,372.400 303.478,372.400 303.261 C 372.400 303.044,372.557 302.807,372.749 302.733 C 373.191 302.565,375.200 298.604,375.200 297.902 C 375.200 297.613,375.560 297.117,376.000 296.800 C 376.440 296.483,376.800 295.903,376.800 295.512 C 376.800 295.120,376.980 294.800,377.200 294.800 C 377.420 294.800,377.600 294.440,377.600 294.000 C 377.600 293.560,377.780 293.200,378.000 293.200 C 378.220 293.200,378.400 292.855,378.400 292.433 C 378.400 292.012,378.537 291.607,378.704 291.533 C 379.186 291.322,382.407 284.675,382.403 283.900 C 382.401 283.515,382.580 283.200,382.800 283.200 C 383.020 283.200,383.200 282.840,383.200 282.400 C 383.200 281.960,383.380 281.600,383.600 281.600 C 383.820 281.600,384.000 281.240,384.000 280.800 C 384.000 280.360,384.180 280.000,384.400 280.000 C 384.620 280.000,384.800 279.651,384.800 279.224 C 384.800 278.797,384.980 278.336,385.200 278.200 C 385.420 278.064,385.600 277.513,385.600 276.976 C 385.600 276.439,385.780 276.000,386.000 276.000 C 386.220 276.000,386.400 275.640,386.400 275.200 C 386.400 274.760,386.580 274.400,386.800 274.400 C 387.020 274.400,387.200 274.038,387.200 273.595 C 387.200 273.152,387.359 272.477,387.553 272.095 C 387.748 271.713,388.129 270.860,388.400 270.200 C 388.671 269.540,389.052 268.687,389.247 268.305 C 389.441 267.923,389.600 267.336,389.600 267.000 C 389.600 266.664,389.763 266.077,389.963 265.695 C 390.560 264.553,391.600 260.778,391.600 259.754 C 391.600 259.229,391.780 258.800,392.000 258.800 C 392.220 258.800,392.400 258.170,392.400 257.400 C 392.400 256.630,392.580 256.000,392.800 256.000 C 393.020 256.000,393.200 255.471,393.200 254.824 C 393.200 254.177,393.380 253.536,393.600 253.400 C 393.820 253.264,394.000 252.533,394.000 251.776 C 394.000 251.019,394.180 250.400,394.400 250.400 C 394.620 250.400,394.800 249.680,394.800 248.800 C 394.800 247.920,394.980 247.200,395.200 247.200 C 395.420 247.200,395.600 246.300,395.600 245.200 C 395.600 244.100,395.780 243.200,396.000 243.200 C 396.220 243.200,396.400 242.480,396.400 241.600 C 396.400 240.720,396.580 240.000,396.800 240.000 C 397.020 240.000,397.200 239.010,397.200 237.800 C 397.200 236.590,397.380 235.600,397.600 235.600 C 397.822 235.600,398.000 234.533,398.000 233.200 C 398.000 231.867,398.178 230.800,398.400 230.800 C 398.628 230.800,398.800 229.611,398.800 228.033 C 398.800 226.176,398.964 225.212,399.300 225.100 C 399.693 224.969,399.800 219.591,399.800 200.000 C 399.800 180.409,399.693 175.031,399.300 174.900 C 398.964 174.788,398.800 173.824,398.800 171.967 C 398.800 170.389,398.628 169.200,398.400 169.200 C 398.178 169.200,398.000 168.133,398.000 166.800 C 398.000 165.467,397.822 164.400,397.600 164.400 C 397.380 164.400,397.200 163.410,397.200 162.200 C 397.200 160.990,397.020 160.000,396.800 160.000 C 396.580 160.000,396.400 159.280,396.400 158.400 C 396.400 157.520,396.220 156.800,396.000 156.800 C 395.780 156.800,395.600 155.900,395.600 154.800 C 395.600 153.700,395.420 152.800,395.200 152.800 C 394.980 152.800,394.800 152.080,394.800 151.200 C 394.800 150.320,394.620 149.600,394.400 149.600 C 394.180 149.600,394.000 148.981,394.000 148.224 C 394.000 147.467,393.820 146.736,393.600 146.600 C 393.380 146.464,393.200 145.823,393.200 145.176 C 393.200 144.529,393.020 144.000,392.800 144.000 C 392.580 144.000,392.400 143.370,392.400 142.600 C 392.400 141.830,392.220 141.200,392.000 141.200 C 391.780 141.200,391.600 140.771,391.600 140.246 C 391.600 139.222,390.560 135.447,389.963 134.305 C 389.763 133.923,389.600 133.336,389.600 133.000 C 389.600 132.664,389.441 132.077,389.247 131.695 C 389.052 131.313,388.671 130.460,388.400 129.800 C 388.129 129.140,387.748 128.287,387.553 127.905 C 387.359 127.523,387.200 126.848,387.200 126.405 C 387.200 125.962,387.020 125.600,386.800 125.600 C 386.580 125.600,386.400 125.240,386.400 124.800 C 386.400 124.360,386.220 124.000,386.000 124.000 C 385.780 124.000,385.600 123.561,385.600 123.024 C 385.600 122.487,385.420 121.936,385.200 121.800 C 384.980 121.664,384.800 121.203,384.800 120.776 C 384.800 120.349,384.620 120.000,384.400 120.000 C 384.180 120.000,384.000 119.640,384.000 119.200 C 384.000 118.760,383.820 118.400,383.600 118.400 C 383.380 118.400,383.200 118.040,383.200 117.600 C 383.200 117.160,383.020 116.800,382.800 116.800 C 382.580 116.800,382.401 116.485,382.403 116.100 C 382.407 115.325,379.186 108.678,378.704 108.467 C 378.537 108.393,378.400 107.988,378.400 107.567 C 378.400 107.145,378.220 106.800,378.000 106.800 C 377.780 106.800,377.600 106.440,377.600 106.000 C 377.600 105.560,377.420 105.200,377.200 105.200 C 376.980 105.200,376.800 104.880,376.800 104.488 C 376.800 104.097,376.440 103.517,376.000 103.200 C 375.560 102.883,375.200 102.387,375.200 102.098 C 375.200 101.396,373.191 97.435,372.749 97.267 C 372.557 97.193,372.400 96.956,372.400 96.739 C 372.400 96.522,371.860 95.559,371.200 94.600 C 370.540 93.641,370.000 92.703,370.000 92.516 C 370.000 92.329,369.640 91.917,369.200 91.600 C 368.760 91.283,368.400 90.743,368.400 90.400 C 368.400 90.057,368.040 89.517,367.600 89.200 C 367.160 88.883,366.800 88.343,366.800 88.000 C 366.800 87.657,366.440 87.117,366.000 86.800 C 365.560 86.483,365.200 85.943,365.200 85.600 C 365.200 85.257,364.840 84.717,364.400 84.400 C 363.960 84.083,363.600 83.620,363.600 83.371 C 363.600 83.122,363.060 82.354,362.400 81.663 C 361.740 80.972,361.200 80.208,361.200 79.964 C 361.200 79.720,360.660 79.017,360.000 78.400 C 359.340 77.783,358.800 77.164,358.800 77.023 C 358.800 76.752,358.486 76.352,356.700 74.349 C 356.095 73.671,355.600 72.959,355.600 72.768 C 355.600 72.577,354.790 71.611,353.800 70.621 C 352.810 69.631,352.000 68.645,352.000 68.430 C 352.000 68.214,349.850 65.914,347.221 63.319 C 341.438 57.608,342.392 58.562,336.681 52.779 C 334.086 50.150,331.786 48.000,331.570 48.000 C 331.355 48.000,330.369 47.190,329.379 46.200 C 328.389 45.210,327.423 44.400,327.232 44.400 C 327.041 44.400,326.281 43.859,325.542 43.199 C 323.610 41.469,323.264 41.200,322.977 41.200 C 322.836 41.200,322.217 40.660,321.600 40.000 C 320.983 39.340,320.280 38.800,320.036 38.800 C 319.792 38.800,319.028 38.260,318.337 37.600 C 317.646 36.940,316.878 36.400,316.629 36.400 C 316.380 36.400,315.917 36.040,315.600 35.600 C 315.283 35.160,314.743 34.800,314.400 34.800 C 314.057 34.800,313.517 34.440,313.200 34.000 C 312.883 33.560,312.343 33.200,312.000 33.200 C 311.657 33.200,311.117 32.840,310.800 32.400 C 310.483 31.960,309.943 31.600,309.600 31.600 C 309.257 31.600,308.717 31.240,308.400 30.800 C 308.083 30.360,307.671 30.000,307.484 30.000 C 307.297 30.000,306.359 29.460,305.400 28.800 C 304.441 28.140,303.478 27.600,303.261 27.600 C 303.044 27.600,302.807 27.443,302.733 27.251 C 302.553 26.779,298.581 24.800,297.813 24.800 C 297.476 24.800,297.200 24.620,297.200 24.400 C 297.200 24.180,296.880 24.000,296.488 24.000 C 296.097 24.000,295.517 23.640,295.200 23.200 C 294.883 22.760,294.303 22.400,293.912 22.400 C 293.520 22.400,293.200 22.220,293.200 22.000 C 293.200 21.780,292.855 21.600,292.433 21.600 C 292.012 21.600,291.607 21.463,291.533 21.296 C 291.322 20.814,284.675 17.593,283.900 17.597 C 283.515 17.599,283.200 17.420,283.200 17.200 C 283.200 16.980,282.840 16.800,282.400 16.800 C 281.960 16.800,281.600 16.620,281.600 16.400 C 281.600 16.180,281.240 16.000,280.800 16.000 C 280.360 16.000,280.000 15.820,280.000 15.600 C 280.000 15.380,279.651 15.200,279.224 15.200 C 278.797 15.200,278.336 15.020,278.200 14.800 C 278.064 14.580,277.513 14.400,276.976 14.400 C 276.439 14.400,276.000 14.220,276.000 14.000 C 276.000 13.780,275.640 13.600,275.200 13.600 C 274.760 13.600,274.400 13.420,274.400 13.200 C 274.400 12.980,274.038 12.800,273.595 12.800 C 273.152 12.800,272.477 12.641,272.095 12.447 C 271.713 12.252,270.860 11.871,270.200 11.600 C 269.540 11.329,268.687 10.948,268.305 10.753 C 267.923 10.559,267.336 10.400,267.000 10.400 C 266.664 10.400,266.077 10.237,265.695 10.037 C 264.553 9.440,260.778 8.400,259.754 8.400 C 259.229 8.400,258.800 8.220,258.800 8.000 C 258.800 7.780,258.170 7.600,257.400 7.600 C 256.630 7.600,256.000 7.420,256.000 7.200 C 256.000 6.980,255.471 6.800,254.824 6.800 C 254.177 6.800,253.536 6.620,253.400 6.400 C 253.264 6.180,252.533 6.000,251.776 6.000 C 251.019 6.000,250.400 5.820,250.400 5.600 C 250.400 5.380,249.680 5.200,248.800 5.200 C 247.920 5.200,247.200 5.020,247.200 4.800 C 247.200 4.580,246.300 4.400,245.200 4.400 C 244.100 4.400,243.200 4.220,243.200 4.000 C 243.200 3.780,242.480 3.600,241.600 3.600 C 240.720 3.600,240.000 3.420,240.000 3.200 C 240.000 2.980,239.010 2.800,237.800 2.800 C 236.590 2.800,235.600 2.620,235.600 2.400 C 235.600 2.178,234.533 2.000,233.200 2.000 C 231.867 2.000,230.800 1.822,230.800 1.600 C 230.800 1.372,229.611 1.200,228.033 1.200 C 226.198 1.200,225.211 1.034,225.103 0.708 C 224.941 0.222,187.291 -0.126,178.300 0.275 M196.600 16.036 C 205.628 18.272,219.704 24.456,218.501 25.659 C 218.196 25.964,208.410 25.210,204.299 24.565 C 202.099 24.220,202.600 24.960,206.918 28.432 C 208.943 30.060,211.130 31.877,211.778 32.470 C 214.336 34.811,215.577 34.846,215.594 32.576 C 215.604 31.212,216.539 30.352,218.623 29.788 C 219.710 29.493,221.674 28.963,222.987 28.609 C 225.867 27.832,225.986 27.669,225.994 24.500 L 226.000 22.000 228.200 22.000 L 230.400 22.000 230.400 25.000 C 230.400 26.932,230.558 28.000,230.844 28.000 C 231.088 28.000,236.594 26.461,243.079 24.580 C 256.413 20.713,254.367 20.810,262.000 23.687 C 295.180 36.195,325.794 59.313,346.637 87.600 C 351.659 94.416,353.904 97.821,358.901 106.200 C 360.503 108.886,366.188 120.052,367.359 122.811 C 368.290 125.004,369.342 127.422,370.400 129.796 C 370.840 130.783,371.200 131.703,371.200 131.840 C 371.200 131.977,371.816 133.734,372.569 135.745 C 376.210 145.470,379.163 156.944,381.620 170.918 C 382.200 174.219,382.217 174.200,378.662 174.200 L 375.800 174.200 374.820 177.000 C 373.048 182.066,373.329 186.187,375.731 190.336 C 378.747 195.544,379.698 198.400,379.753 202.414 L 379.800 205.828 377.735 208.414 C 372.830 214.557,373.288 214.545,368.387 208.656 C 366.765 206.707,364.890 204.547,364.219 203.856 L 363.000 202.600 362.800 209.795 C 362.624 216.141,362.520 217.006,361.923 217.120 C 361.141 217.270,361.077 216.956,360.421 209.800 C 359.405 198.710,358.437 189.504,358.270 189.336 C 358.171 189.238,357.035 189.502,355.745 189.923 C 352.576 190.958,352.977 191.535,349.482 180.888 C 347.767 175.664,346.224 171.162,346.052 170.884 C 345.724 170.354,340.834 175.232,325.885 191.000 L 323.610 193.400 323.599 201.600 C 323.586 211.009,323.899 210.061,319.918 212.732 C 315.846 215.464,316.024 215.509,315.444 211.600 C 315.330 210.830,315.048 209.165,314.818 207.900 C 314.588 206.635,314.228 204.655,314.017 203.500 C 313.807 202.345,313.259 199.240,312.800 196.600 C 312.341 193.960,311.803 190.900,311.605 189.800 C 311.407 188.700,310.960 186.180,310.610 184.200 C 310.261 182.220,309.705 179.070,309.375 177.200 C 308.497 172.227,308.432 171.998,307.892 172.016 C 307.622 172.025,306.777 172.565,306.015 173.216 C 304.125 174.832,303.453 174.713,301.938 172.500 C 301.223 171.455,300.449 170.393,300.219 170.141 C 299.989 169.889,298.360 167.673,296.600 165.217 L 293.400 160.751 285.600 160.989 L 277.800 161.227 274.600 157.838 L 271.400 154.448 268.600 155.204 C 265.155 156.134,265.880 156.624,258.985 148.700 C 253.022 141.846,253.366 142.129,252.089 143.023 C 250.910 143.849,250.718 143.115,254.847 153.568 L 258.495 162.800 262.826 162.800 L 267.158 162.800 267.279 160.700 C 267.466 157.462,270.761 157.331,272.395 160.497 C 273.414 162.471,274.732 164.000,275.416 164.000 C 279.232 164.000,278.651 172.355,274.316 179.800 C 269.293 188.427,249.944 201.600,242.295 201.600 C 240.832 201.600,241.396 205.998,243.052 207.500 C 244.364 208.690,248.429 208.741,251.963 207.612 C 253.320 207.178,255.324 206.705,256.415 206.560 L 258.400 206.297 258.393 207.648 C 258.343 217.391,251.730 229.224,230.701 257.200 L 228.747 259.800 228.979 263.000 C 229.106 264.760,229.375 267.280,229.576 268.600 C 230.382 273.891,231.346 280.791,232.008 286.000 C 232.761 291.938,231.980 293.268,223.700 300.131 C 217.894 304.944,215.200 307.619,215.200 308.572 C 215.200 309.051,216.419 315.321,217.085 318.271 C 217.287 319.165,216.817 319.469,212.396 321.298 C 211.110 321.830,210.944 322.095,210.425 324.440 C 208.516 333.057,200.752 341.655,192.434 344.364 C 190.184 345.097,188.895 345.200,181.977 345.200 C 173.102 345.200,173.600 345.390,173.600 342.011 C 173.600 338.271,171.330 328.719,168.036 318.600 C 162.615 301.945,162.048 296.747,164.755 288.524 C 168.873 276.013,168.334 271.791,160.681 256.600 C 159.129 253.520,157.531 250.334,157.130 249.519 C 156.490 248.222,156.400 246.949,156.400 239.233 L 156.400 230.427 152.132 230.314 L 147.863 230.200 147.206 227.824 C 146.346 224.716,145.344 223.961,141.735 223.703 C 137.854 223.425,133.980 224.135,130.656 225.734 C 125.324 228.299,114.101 229.078,110.284 227.149 C 106.221 225.096,98.525 215.081,93.687 205.552 L 91.400 201.047 91.400 186.024 C 91.400 163.963,93.898 157.800,107.500 146.294 L 108.800 145.194 108.800 139.891 L 108.800 134.588 113.708 129.691 L 118.617 124.795 122.008 124.198 C 123.874 123.870,125.952 123.601,126.627 123.601 C 128.957 123.600,131.983 122.388,134.230 120.558 C 138.302 117.242,138.649 117.172,150.349 117.293 L 160.600 117.400 160.709 124.917 L 160.818 132.434 163.309 133.570 C 170.492 136.845,181.312 141.237,181.913 141.122 C 182.369 141.034,182.685 140.454,182.852 139.395 C 183.934 132.552,184.355 131.993,187.481 133.250 C 188.097 133.497,188.960 133.839,189.400 134.009 C 189.840 134.179,190.830 134.593,191.600 134.928 C 199.069 138.180,203.692 139.219,210.529 139.182 C 218.430 139.140,220.797 135.929,221.451 124.366 L 221.727 119.472 218.964 119.756 C 217.444 119.912,214.580 120.200,212.600 120.395 C 210.620 120.590,207.917 120.872,206.593 121.022 L 204.185 121.295 203.233 119.147 C 201.642 115.563,196.769 105.067,196.613 104.892 C 196.450 104.708,189.821 106.515,189.439 106.847 C 189.231 107.028,189.529 108.397,190.141 110.081 C 191.846 114.765,191.564 116.816,188.995 118.403 C 187.175 119.528,186.693 119.305,185.838 116.939 C 185.042 114.734,184.718 113.900,184.000 112.200 C 183.721 111.540,183.337 110.595,183.146 110.100 C 182.956 109.605,182.637 108.795,182.438 108.300 C 182.239 107.805,181.494 105.903,180.782 104.073 C 179.301 100.265,179.504 100.509,175.397 97.600 C 173.689 96.390,170.381 94.008,168.046 92.308 C 163.401 88.925,163.046 88.794,161.947 90.061 C 160.966 91.192,160.678 90.714,165.126 95.328 C 167.285 97.567,170.331 100.771,171.894 102.446 L 174.737 105.492 173.956 109.046 C 171.804 118.845,170.554 120.382,167.201 117.353 C 165.111 115.465,165.168 115.176,167.900 113.850 C 172.689 111.526,172.940 112.492,165.523 104.678 C 161.935 100.898,157.986 96.763,156.747 95.490 L 154.493 93.175 152.347 94.029 C 151.166 94.499,148.764 95.448,147.008 96.140 C 142.407 97.952,133.947 106.024,133.198 109.316 C 132.106 114.115,130.966 116.277,128.738 117.773 C 125.962 119.636,120.933 120.142,117.933 118.859 C 116.980 118.451,115.300 117.983,114.200 117.819 C 110.520 117.270,110.773 118.152,110.893 106.282 L 111.000 95.800 120.400 95.600 C 131.262 95.369,130.580 95.759,128.411 91.023 C 127.745 89.569,127.200 88.312,127.200 88.230 C 127.200 86.959,123.895 81.189,123.402 81.598 C 122.452 82.386,121.599 81.776,121.606 80.313 C 121.616 78.180,120.976 78.561,136.500 71.453 C 141.410 69.205,143.529 68.229,147.000 66.615 C 148.980 65.695,151.198 64.685,151.929 64.371 C 153.192 63.828,153.245 63.722,153.008 62.200 C 152.258 57.373,152.302 55.975,153.262 54.165 C 154.412 51.998,154.018 51.963,158.218 54.600 C 162.117 57.048,162.601 57.204,162.254 55.900 C 162.123 55.405,161.706 53.521,161.328 51.712 C 160.513 47.813,160.733 47.935,156.200 48.867 C 147.037 50.749,147.947 50.993,147.002 46.400 C 145.608 39.623,145.592 39.445,146.326 38.899 C 146.697 38.623,149.520 36.729,152.600 34.688 C 155.680 32.648,160.630 29.269,163.600 27.178 C 174.174 19.737,180.076 16.233,183.200 15.544 C 185.167 15.110,194.200 15.442,196.600 16.036 M15.806 245.564 C 19.635 247.426,34.028 254.388,41.100 257.800 L 47.600 260.936 47.694 265.168 C 47.893 274.048,47.826 274.260,42.242 282.390 L 39.289 286.691 38.782 294.560 C 38.192 303.741,38.278 303.574,36.036 299.870 C 26.999 284.940,21.944 274.140,16.719 258.600 C 15.014 253.529,14.928 253.238,13.632 248.200 C 12.468 243.673,12.310 243.864,15.806 245.564 " stroke="none" fill="#2494e3" fill-rule="evenodd"></path></g></svg>